<mxfile host="Electron" modified="2024-06-22T10:07:30.962Z" agent="Mozilla/5.0 (X11; Linux x86_64) AppleWebKit/537.36 (KHTML, like Gecko) draw.io/24.2.5 Chrome/122.0.6261.156 Electron/29.3.3 Safari/537.36" etag="kxMP9NuzQ9DiER_RfIC3" version="24.2.5" type="device">
  <diagram name="Page-1" id="xcEkqkAStGt948F2OmXl">
    <mxGraphModel dx="643" dy="1067" grid="1" gridSize="10" guides="1" tooltips="1" connect="1" arrows="1" fold="1" page="1" pageScale="1" pageWidth="850" pageHeight="1100" math="1" shadow="0">
      <root>
        <mxCell id="0" />
        <mxCell id="1" parent="0" />
        <mxCell id="90Iw-HYkFCQXR-lB0Bmn-2" value="" style="endArrow=classic;html=1;rounded=0;" parent="1" edge="1">
          <mxGeometry width="50" height="50" relative="1" as="geometry">
            <mxPoint x="160" y="520" as="sourcePoint" />
            <mxPoint x="480" y="520" as="targetPoint" />
          </mxGeometry>
        </mxCell>
        <mxCell id="90Iw-HYkFCQXR-lB0Bmn-3" value="" style="endArrow=classic;html=1;rounded=0;" parent="1" edge="1">
          <mxGeometry width="50" height="50" relative="1" as="geometry">
            <mxPoint x="200" y="560" as="sourcePoint" />
            <mxPoint x="200" y="160" as="targetPoint" />
          </mxGeometry>
        </mxCell>
        <mxCell id="90Iw-HYkFCQXR-lB0Bmn-4" value="`x`" style="text;html=1;align=center;verticalAlign=middle;whiteSpace=wrap;rounded=0;fontSize=16;" parent="1" vertex="1">
          <mxGeometry x="470" y="504" width="60" height="30" as="geometry" />
        </mxCell>
        <mxCell id="90Iw-HYkFCQXR-lB0Bmn-5" value="`y`" style="text;html=1;align=center;verticalAlign=middle;whiteSpace=wrap;rounded=0;fontSize=16;" parent="1" vertex="1">
          <mxGeometry x="170" y="130" width="60" height="30" as="geometry" />
        </mxCell>
        <mxCell id="90Iw-HYkFCQXR-lB0Bmn-9" value="" style="endArrow=none;html=1;rounded=0;" parent="1" edge="1">
          <mxGeometry width="50" height="50" relative="1" as="geometry">
            <mxPoint x="200" y="420" as="sourcePoint" />
            <mxPoint x="320" y="240" as="targetPoint" />
          </mxGeometry>
        </mxCell>
        <mxCell id="90Iw-HYkFCQXR-lB0Bmn-12" value="" style="rounded=0;whiteSpace=wrap;html=1;fillColor=#d5e8d4;strokeColor=#82b366;" parent="1" vertex="1">
          <mxGeometry x="200" y="420" width="120" height="100" as="geometry" />
        </mxCell>
        <mxCell id="90Iw-HYkFCQXR-lB0Bmn-15" value="" style="verticalLabelPosition=bottom;verticalAlign=top;html=1;shape=mxgraph.basic.orthogonal_triangle;flipV=0;flipH=1;fillColor=#f8cecc;strokeColor=#b85450;" parent="1" vertex="1">
          <mxGeometry x="200" y="280" width="120" height="140" as="geometry" />
        </mxCell>
        <mxCell id="90Iw-HYkFCQXR-lB0Bmn-16" value="`y = \frac {a} {m} x + \frac {b} {m}`" style="text;html=1;align=center;verticalAlign=middle;whiteSpace=wrap;rounded=0;fontSize=16;" parent="1" vertex="1">
          <mxGeometry x="310" y="220" width="170" height="30" as="geometry" />
        </mxCell>
        <mxCell id="QF_IepQ8nBJkwQ7o_Spw-1" value="`b \lt y \le \lfloor \frac {a} {m} x\rfloor`: `\sum_{i=1}^{n-1} \lfloor \frac a m \rfloor i` 個の格子点" style="text;html=1;align=center;verticalAlign=middle;whiteSpace=wrap;rounded=0;fontSize=16;fontColor=#EA6B66;" parent="1" vertex="1">
          <mxGeometry x="316" y="330" width="346" height="60" as="geometry" />
        </mxCell>
        <mxCell id="QF_IepQ8nBJkwQ7o_Spw-6" value="`0 \le y \le b`: `n \lfloor \frac {b} {m} \rfloor` 個の点" style="text;html=1;align=center;verticalAlign=middle;whiteSpace=wrap;rounded=0;fontSize=16;fontColor=#67AB9F;textShadow=0;" parent="1" vertex="1">
          <mxGeometry x="296" y="465.5" width="280" height="30" as="geometry" />
        </mxCell>
        <mxCell id="QF_IepQ8nBJkwQ7o_Spw-19" value="`n`" style="text;html=1;align=center;verticalAlign=middle;whiteSpace=wrap;rounded=0;fontSize=16;" parent="1" vertex="1">
          <mxGeometry x="296" y="520" width="50" height="30" as="geometry" />
        </mxCell>
        <mxCell id="QF_IepQ8nBJkwQ7o_Spw-20" value="`O`" style="text;html=1;align=center;verticalAlign=middle;whiteSpace=wrap;rounded=0;fontSize=16;" parent="1" vertex="1">
          <mxGeometry x="160" y="490" width="50" height="30" as="geometry" />
        </mxCell>
        <mxCell id="QF_IepQ8nBJkwQ7o_Spw-22" value="" style="ellipse;whiteSpace=wrap;html=1;aspect=fixed;strokeColor=none;fillColor=#000000;" parent="1" vertex="1">
          <mxGeometry x="238" y="397" width="6" height="6" as="geometry" />
        </mxCell>
        <mxCell id="QF_IepQ8nBJkwQ7o_Spw-23" value="" style="ellipse;whiteSpace=wrap;html=1;aspect=fixed;strokeColor=none;fillColor=#000000;" parent="1" vertex="1">
          <mxGeometry x="278" y="357" width="6" height="6" as="geometry" />
        </mxCell>
        <mxCell id="QF_IepQ8nBJkwQ7o_Spw-24" value="" style="ellipse;whiteSpace=wrap;html=1;aspect=fixed;strokeColor=none;fillColor=#000000;" parent="1" vertex="1">
          <mxGeometry x="278" y="397" width="6" height="6" as="geometry" />
        </mxCell>
        <mxCell id="QF_IepQ8nBJkwQ7o_Spw-28" value="" style="ellipse;whiteSpace=wrap;html=1;aspect=fixed;strokeColor=none;fillColor=#000000;" parent="1" vertex="1">
          <mxGeometry x="197" y="437" width="6" height="6" as="geometry" />
        </mxCell>
        <mxCell id="QF_IepQ8nBJkwQ7o_Spw-29" value="" style="ellipse;whiteSpace=wrap;html=1;aspect=fixed;strokeColor=none;fillColor=#000000;" parent="1" vertex="1">
          <mxGeometry x="197" y="477" width="6" height="6" as="geometry" />
        </mxCell>
        <mxCell id="QF_IepQ8nBJkwQ7o_Spw-31" value="" style="ellipse;whiteSpace=wrap;html=1;aspect=fixed;strokeColor=none;fillColor=#000000;" parent="1" vertex="1">
          <mxGeometry x="238" y="477" width="6" height="6" as="geometry" />
        </mxCell>
        <mxCell id="QF_IepQ8nBJkwQ7o_Spw-32" value="" style="ellipse;whiteSpace=wrap;html=1;aspect=fixed;strokeColor=none;fillColor=#000000;" parent="1" vertex="1">
          <mxGeometry x="238" y="437" width="6" height="6" as="geometry" />
        </mxCell>
        <mxCell id="QF_IepQ8nBJkwQ7o_Spw-37" value="" style="ellipse;whiteSpace=wrap;html=1;aspect=fixed;strokeColor=none;fillColor=#000000;" parent="1" vertex="1">
          <mxGeometry x="278" y="477.5" width="6" height="6" as="geometry" />
        </mxCell>
        <mxCell id="QF_IepQ8nBJkwQ7o_Spw-38" value="" style="ellipse;whiteSpace=wrap;html=1;aspect=fixed;strokeColor=none;fillColor=#000000;" parent="1" vertex="1">
          <mxGeometry x="278" y="437.5" width="6" height="6" as="geometry" />
        </mxCell>
        <mxCell id="QF_IepQ8nBJkwQ7o_Spw-42" value="" style="endArrow=none;dashed=1;html=1;dashPattern=1 3;strokeWidth=2;rounded=0;" parent="1" edge="1">
          <mxGeometry width="50" height="50" relative="1" as="geometry">
            <mxPoint x="160" y="440" as="sourcePoint" />
            <mxPoint x="480" y="440" as="targetPoint" />
          </mxGeometry>
        </mxCell>
        <mxCell id="QF_IepQ8nBJkwQ7o_Spw-43" value="`y = \lfloor \frac b m \rfloor`" style="text;html=1;align=center;verticalAlign=middle;whiteSpace=wrap;rounded=0;fontSize=16;" parent="1" vertex="1">
          <mxGeometry x="453" y="425" width="170" height="30" as="geometry" />
        </mxCell>
        <mxCell id="AWYOGwI8FYMER_cwPHjO-2" value="" style="ellipse;whiteSpace=wrap;html=1;aspect=fixed;strokeColor=none;fillColor=#000000;" parent="1" vertex="1">
          <mxGeometry x="277" y="316" width="6" height="6" as="geometry" />
        </mxCell>
      </root>
    </mxGraphModel>
  </diagram>
</mxfile>
